<?xml version="1.0" encoding="UTF-8"?>
<svg version="1.1" xmlns="http://www.w3.org/2000/svg" width="2048" height="2048">
<path d="M0 0 C10.63410073 9.07583139 19.59191966 19.27303073 27.87304688 30.49755859 C31.02443535 34.76882951 34.34654943 38.88233004 37.71679688 42.98193359 C42.44438234 48.75159482 47.04681969 54.59576397 51.57226562 60.52490234 C54.17332267 63.93047482 56.81621681 67.30232924 59.46679688 70.66943359 C59.9245752 71.25096191 60.38235352 71.83249023 60.85400391 72.43164062 C61.78189308 73.60983499 62.70995341 74.78789459 63.63818359 75.96582031 C65.93803932 78.88564417 68.2334021 81.80899501 70.52929688 84.73193359 C70.98369141 85.31007813 71.43808594 85.88822266 71.90625 86.48388672 C74.18761936 89.38656518 76.46743852 92.29043634 78.74414062 95.19677734 C82.9393003 100.54888457 87.14758267 105.88835685 91.41015625 111.18701172 C96.18166106 117.11864711 100.86469415 123.10528355 105.46679688 129.16943359 C110.23928116 135.45655143 115.14757861 141.6103533 120.15405273 147.7121582 C124.61635069 153.17188734 128.8961213 158.7569014 133.15429688 164.37646484 C136.85357466 169.24065943 140.65310103 174.00781991 144.52929688 178.73193359 C149.54511668 184.84496398 154.37895247 191.07438774 159.15429688 197.37646484 C162.85357466 202.24065943 166.65310103 207.00781991 170.52929688 211.73193359 C174.97543703 217.15066691 179.29606138 222.64530987 183.52929688 228.23193359 C188.34900439 234.5922898 193.3060652 240.81854453 198.36303711 246.99145508 C201.67517281 251.0421855 204.9196976 255.13321259 208.09179688 259.29443359 C211.61214249 263.91062874 215.19963501 268.46140271 218.84179688 272.98193359 C223.13601692 278.31483279 227.32855648 283.7147345 231.46679688 289.16943359 C236.23917092 295.45663223 241.14758202 301.61035746 246.15405273 307.7121582 C250.61635069 313.17188734 254.8961213 318.7569014 259.15429688 324.37646484 C262.85357466 329.24065943 266.65310103 334.00781991 270.52929688 338.73193359 C275.54511668 344.84496398 280.37895247 351.07438774 285.15429688 357.37646484 C288.85357466 362.24065943 292.65310103 367.00781991 296.52929688 371.73193359 C300.97543703 377.15066691 305.29606138 382.64530987 309.52929688 388.23193359 C314.34900439 394.5922898 319.3060652 400.81854453 324.36303711 406.99145508 C327.67517281 411.0421855 330.9196976 415.13321259 334.09179688 419.29443359 C337.61214422 423.91063101 341.1997037 428.46134558 344.84179688 432.98193359 C349.71993194 439.04169455 354.46572188 445.19254647 359.16650391 451.390625 C362.27931259 455.48299538 365.45129897 459.51359138 368.70214844 463.49707031 C391.32602309 491.2773213 403.655206 522.35487791 404.41416931 558.36223793 C404.46022541 560.53661856 404.51146906 562.71082426 404.56408691 564.88505554 C404.63975279 568.0150779 404.71400656 571.14512856 404.78729248 574.27520752 C407.01598065 668.44118923 412.59834201 763.30802033 466.02929688 948.73193359 C466.52220215 949.83730469 467.01510742 950.94267578 467.52294922 952.08154297 C473.49536674 965.39797856 479.80498624 978.45963479 486.734375 991.30224609 C488.12500222 993.91150742 489.47882272 996.53757462 490.82617188 999.16943359 C497.05027178 1011.30871668 503.65487976 1023.15240918 510.59570312 1034.89599609 C513.29027088 1039.45534003 515.91855495 1044.04731256 518.51757812 1048.66162109 C525.08941651 1060.31733446 532.12092911 1071.65657703 539.27880859 1082.95996094 C540.82261727 1085.40464765 542.3535208 1087.85655257 543.87695312 1090.31396484 C567.03169596 1127.54675795 592.24716606 1163.65437858 618.31713867 1198.89453125 C621.23010992 1202.83379489 624.13077321 1206.78203334 627.02929688 1210.73193359 C627.59132813 1211.49489746 628.15335938 1212.25786133 628.73242188 1213.04394531 C640.82950474 1229.5255141 640.82950474 1229.5255141 644.02929688 1238.73193359 C644.34382813 1239.57755859 644.65835937 1240.42318359 644.98242188 1241.29443359 C650.38764855 1258.59115897 647.93408137 1278.48945333 639.84179688 1294.41943359 C633.68988618 1305.58440646 626.82428355 1316.38433839 620.16162109 1327.25048828 C617.64815527 1331.35092392 615.15244838 1335.46207775 612.65698242 1339.57348633 C597.19996761 1365.0285529 581.51983462 1390.34528498 565.58911133 1415.5065918 C562.17529333 1420.9029209 558.78976171 1426.31641215 555.41235352 1431.7355957 C550.1009777 1440.25685807 544.76764737 1448.75875292 539.28710938 1457.17236328 C536.64524454 1461.22923857 534.02597492 1465.29928848 531.42773438 1469.38427734 C523.6538822 1481.60172225 515.76942884 1493.72685611 507.67163086 1505.73144531 C503.46227783 1511.99422502 499.38836266 1518.32077728 495.38476562 1524.71630859 C488.1302646 1536.28260257 480.43447331 1547.54291559 472.7409668 1558.81982422 C417.27474521 1640.19668456 382.90838935 1732.18872064 360.47055054 1861.69012451 C354.2201273 1907.15371287 335.85400231 1951.32515443 299.02929688 1980.73193359 C298.06507812 1981.51052734 297.10085938 1982.28912109 296.10742188 1983.09130859 C279.43135366 1996.3564783 260.56431263 2006.82638938 240.02929688 2012.73193359 C238.29184204 2013.24820312 238.29184204 2013.24820312 236.51928711 2013.77490234 C225.33916769 2016.87642498 214.53253896 2017.35150504 202.97241211 2017.25341797 C199.96646737 2017.23193124 196.96290508 2017.2533579 193.95703125 2017.27880859 C183.16405843 2017.29740693 173.43560863 2016.54306693 163.08517456 2013.35784912 C160.89454197 2012.69090723 158.69400674 2012.07379318 156.48657227 2011.46484375 C151.00975229 2009.94883073 145.55074269 2008.37342158 140.09179688 2006.79443359 C139.03694092 2006.49035583 137.98208496 2006.18627808 136.89526367 2005.87298584 C114.74764921 1999.48158951 92.67227275 1992.85021989 70.59343433 1986.22602367 C31.16340882 1974.39605099 -8.25819859 1962.58589934 -47.97070312 1951.73193359 C-49.1508197 1951.40918457 -50.33093628 1951.08643555 -51.54681396 1950.75390625 C-93.22602513 1939.37790047 -135.05630857 1928.93507169 -177.59570312 1921.29443359 C-178.45796509 1921.13830597 -179.32022705 1920.98217834 -180.20861816 1920.82131958 C-207.3512946 1915.9516118 -234.63526633 1913.12622049 -262.11205459 1911.10079813 C-266.16341629 1910.80020522 -270.21401942 1910.48967987 -274.26472473 1910.1803894 C-281.97127289 1909.59333744 -289.67839836 1909.01428667 -297.38579684 1908.43851745 C-305.86996619 1907.80445357 -314.35357018 1907.16300825 -322.83707595 1906.52013445 C-325.35578918 1906.32926955 -327.87451153 1906.13852549 -330.39323616 1905.94781113 C-343.8197261 1904.93108129 -357.24618618 1903.91394389 -370.67239189 1902.89346695 C-372.35693204 1902.76544075 -374.04147247 1902.63741825 -375.72601318 1902.50939941 C-376.56286451 1902.4457994 -377.39971584 1902.38219938 -378.26192629 1902.31667209 C-383.49580791 1901.91915656 -388.72984413 1901.52373948 -393.96398121 1901.12960279 C-402.77957106 1900.46577673 -411.59469679 1899.79631901 -420.40907294 1899.11655176 C-424.5504154 1898.79733557 -428.69191688 1898.48083952 -432.83403587 1898.1718483 C-472.26407683 1895.22600492 -472.26407683 1895.22600492 -489.03320312 1889.98193359 C-489.86553467 1889.72444336 -490.69786621 1889.46695312 -491.55541992 1889.20166016 C-518.58948427 1880.59744749 -540.65867833 1863.73908843 -558.97460938 1842.21630859 C-564.46069489 1835.89559553 -570.52290361 1830.11274261 -576.47070312 1824.23193359 C-589.786007 1811.06660096 -589.786007 1811.06660096 -595.04296875 1804.88232422 C-599.93010512 1799.43071617 -605.26612675 1794.37789045 -610.47070312 1789.23193359 C-623.786007 1776.06660096 -623.786007 1776.06660096 -629.04296875 1769.88232422 C-633.93010512 1764.43071617 -639.26612675 1759.37789045 -644.47070312 1754.23193359 C-657.78675076 1741.06586558 -657.78675076 1741.06586558 -661.43945312 1736.76318359 C-666.86832113 1730.37667676 -673.01631681 1724.62183197 -678.97070312 1718.73193359 C-692.84750497 1705.00542202 -692.84750497 1705.00542202 -698.06054688 1698.86474609 C-702.93938419 1693.41720995 -708.27224754 1688.37183859 -713.47070312 1683.23193359 C-726.786007 1670.06660096 -726.786007 1670.06660096 -732.04296875 1663.88232422 C-736.93010512 1658.43071617 -742.26612675 1653.37789045 -747.47070312 1648.23193359 C-760.786007 1635.06660096 -760.786007 1635.06660096 -766.04296875 1628.88232422 C-770.93010512 1623.43071617 -776.26612675 1618.37789045 -781.47070312 1613.23193359 C-794.786007 1600.06660096 -794.786007 1600.06660096 -800.04296875 1593.88232422 C-804.93010512 1588.43071617 -810.26612675 1583.37789045 -815.47070312 1578.23193359 C-828.786007 1565.06660096 -828.786007 1565.06660096 -834.04296875 1558.88232422 C-838.93010512 1553.43071617 -844.26612675 1548.37789045 -849.47070312 1543.23193359 C-862.78675076 1530.06586558 -862.78675076 1530.06586558 -866.43945312 1525.76318359 C-871.86832113 1519.37667676 -878.01631681 1513.62183197 -883.97070312 1507.73193359 C-898.46814661 1493.39150213 -898.46814661 1493.39150213 -903.64501953 1487.28515625 C-905.39108923 1485.23939283 -907.28325643 1483.346774 -909.15820312 1481.41943359 C-933.70448952 1454.10382258 -942.54970495 1418.0039116 -941.18212891 1382.15283203 C-940.86841235 1377.07685464 -940.23492488 1372.11258821 -939.34570312 1367.10693359 C-939.20575928 1366.31706055 -939.06581543 1365.5271875 -938.92163086 1364.71337891 C-935.89005974 1349.89236457 -930.02513872 1335.96945917 -923.56893921 1322.36541748 C-921.96132245 1318.97773552 -920.37604681 1315.57973575 -918.78901672 1312.18237305 C-917.98631553 1310.46457284 -917.18252168 1308.74728277 -916.37760925 1307.03051758 C-912.89156633 1299.59068888 -909.50378348 1292.11095644 -906.15820312 1284.60693359 C-905.64185303 1283.4502417 -905.12550293 1282.2935498 -904.59350586 1281.10180664 C-903.56672848 1278.80009647 -902.54059815 1276.49809754 -901.51513672 1274.19580078 C-898.84335199 1268.20350207 -896.15605088 1262.21816323 -893.47070312 1256.23193359 C-892.38729974 1253.81529833 -891.30396631 1251.39863171 -890.22070312 1248.98193359 C-883.72070312 1234.48193359 -877.22070313 1219.98193359 -870.72070312 1205.48193359 C-870.18485596 1204.28656982 -869.64900879 1203.09120605 -869.09692383 1201.85961914 C-868.00955884 1199.4339839 -866.92215628 1197.00836551 -865.8347168 1194.58276367 C-863.18776502 1188.67845113 -860.54138631 1182.77388344 -857.89648438 1176.86865234 C-853.17753837 1166.33466534 -848.45503065 1155.80237671 -843.71289062 1145.27880859 C-842.19457434 1141.90905617 -840.67633191 1138.53927049 -839.15820312 1135.16943359 C-838.77498901 1134.31882355 -838.3917749 1133.4682135 -837.99694824 1132.59182739 C-832.31019833 1119.96572175 -826.67004352 1107.31972294 -821.05941772 1094.65963745 C-815.19137786 1081.42429522 -809.23182831 1068.23143678 -803.25271606 1055.04595947 C-797.77481567 1042.96335491 -792.34286017 1030.86191237 -786.97070312 1018.73193359 C-781.20042864 1005.70303171 -775.35552984 992.70948712 -769.47070312 979.73193359 C-763.56696126 966.71193819 -757.70048402 953.67691438 -751.90820312 940.60693359 C-746.24025331 927.81775461 -740.52878154 915.04893454 -734.78320312 902.29443359 C-734.01887808 900.59725031 -733.25455514 898.90006607 -732.49023438 897.20288086 C-729.9929288 891.65829439 -727.49517119 886.11391148 -724.99621582 880.57006836 C-716.39941421 861.50083698 -716.39941421 861.50083698 -707.97070312 842.35693359 C-707.63288818 841.5916333 -707.29507324 840.82633301 -706.94702148 840.0378418 C-701.55554362 827.51974427 -698.15701594 815.10973289 -696.0949707 801.66650391 C-695.84608981 800.10588082 -695.59627963 798.5454057 -695.3456316 796.98506546 C-694.67412383 792.77697696 -694.02063949 788.56630369 -693.37361574 784.35438728 C-692.96997518 781.72719558 -692.56363928 779.10043229 -692.15676498 776.47373962 C-690.22332599 763.97172073 -688.33668776 751.46279423 -686.45908046 738.95228696 C-685.63906439 733.49281694 -684.81574946 728.03384429 -683.99281311 722.57481384 C-682.59678604 713.31154795 -681.20262725 704.04800259 -679.80969238 694.78427124 C-677.82781068 681.60454441 -675.84124843 668.425526 -673.85338521 655.24670017 C-668.16834872 617.55647663 -662.48374678 579.86618808 -656.84005207 542.16974843 C-656.6747853 541.06588821 -656.6747853 541.06588821 -656.50617981 539.93972778 C-656.39802478 539.21733127 -656.28986975 538.49493475 -656.17843729 537.75064743 C-654.88861616 529.13760424 -653.59348387 520.52536006 -652.29715633 511.91329384 C-651.26498145 505.05315617 -650.24012278 498.19198348 -649.22141933 491.32983303 C-648.61154413 487.23326327 -647.99475098 483.13775873 -647.37585258 479.04254341 C-647.10357437 477.23141387 -646.83412485 475.41985585 -646.56807137 473.60780144 C-642.58592027 446.50847282 -634.62913304 419.54888775 -615.97070312 398.73193359 C-614.89175781 397.4925 -614.89175781 397.4925 -613.79101562 396.22802734 C-607.0370184 388.57427617 -599.9484477 381.32660458 -592.20117188 374.67724609 C-589.41204481 372.24469745 -586.69152764 369.74014746 -583.97070312 367.23193359 C-580.0611186 363.63155781 -576.11203237 360.08775228 -572.09570312 356.60693359 C-569.35246894 354.18643284 -566.66185744 351.70992717 -563.97070312 349.23193359 C-560.06088717 345.63180603 -556.11203845 342.08775754 -552.09570312 338.60693359 C-549.35246894 336.18643284 -546.66185744 333.70992717 -543.97070312 331.23193359 C-540.06088717 327.63180603 -536.11203845 324.08775754 -532.09570312 320.60693359 C-529.35246894 318.18643284 -526.66185744 315.70992717 -523.97070312 313.23193359 C-520.06088717 309.63180603 -516.11203845 306.08775754 -512.09570312 302.60693359 C-509.35246894 300.18643284 -506.66185744 297.70992717 -503.97070312 295.23193359 C-500.06088717 291.63180603 -496.11203845 288.08775754 -492.09570312 284.60693359 C-489.35246894 282.18643284 -486.66185744 279.70992717 -483.97070312 277.23193359 C-480.06088717 273.63180603 -476.11203845 270.08775754 -472.09570312 266.60693359 C-469.35246894 264.18643284 -466.66185744 261.70992717 -463.97070312 259.23193359 C-460.06088717 255.63180603 -456.11203845 252.08775754 -452.09570312 248.60693359 C-449.35246894 246.18643284 -446.66185744 243.70992717 -443.97070312 241.23193359 C-440.06088717 237.63180603 -436.11203845 234.08775754 -432.09570312 230.60693359 C-429.35246894 228.18643284 -426.66185744 225.70992717 -423.97070312 223.23193359 C-420.06088717 219.63180603 -416.11203845 216.08775754 -412.09570312 212.60693359 C-409.35246894 210.18643284 -406.66185744 207.70992717 -403.97070312 205.23193359 C-400.06088717 201.63180603 -396.11203845 198.08775754 -392.09570312 194.60693359 C-389.35246894 192.18643284 -386.66185744 189.70992717 -383.97070312 187.23193359 C-380.06088717 183.63180603 -376.11203845 180.08775754 -372.09570312 176.60693359 C-369.35246894 174.18643284 -366.66185744 171.70992717 -363.97070312 169.23193359 C-360.06088717 165.63180603 -356.11203845 162.08775754 -352.09570312 158.60693359 C-349.35246894 156.18643284 -346.66185744 153.70992717 -343.97070312 151.23193359 C-340.06088717 147.63180603 -336.11203845 144.08775754 -332.09570312 140.60693359 C-329.35246894 138.18643284 -326.66185744 135.70992717 -323.97070312 133.23193359 C-320.06088717 129.63180603 -316.11203845 126.08775754 -312.09570312 122.60693359 C-308.81561732 119.71274024 -305.60802256 116.73974467 -302.39038086 113.77661133 C-299.63596885 111.24453243 -296.86327814 108.74158091 -294.03320312 106.29443359 C-290.44111721 103.18229236 -286.9551832 99.96321273 -283.47070312 96.73193359 C-279.38769291 92.94561671 -275.27300596 89.21426311 -271.06054688 85.57177734 C-268.32699753 83.16523204 -265.64956306 80.69890163 -262.97070312 78.23193359 C-259.06091131 74.63178036 -255.11203777 71.08775695 -251.09570312 67.60693359 C-248.35246894 65.18643284 -245.66185744 62.70992717 -242.97070312 60.23193359 C-239.06088717 56.63180603 -235.11203845 53.08775754 -231.09570312 49.60693359 C-228.35246894 47.18643284 -225.66185744 44.70992717 -222.97070312 42.23193359 C-219.06088717 38.63180603 -215.11203845 35.08775754 -211.09570312 31.60693359 C-208.35246856 29.18643251 -205.66187407 26.7099095 -202.97070312 24.23193359 C-199.03023803 20.60401972 -195.057638 17.02376163 -191.00195312 13.52490234 C-189.4997856 12.19895063 -188.02442288 10.84249161 -186.56445312 9.47021484 C-134.80165318 -39.01934922 -56.0193728 -45.94618935 0 0 Z " fill="#A37EED" transform="translate(1170.970703125,31.26806640625)"/>
<path d="M0 0 C5.18239975 1.67909752 9.32695802 4.79020488 13.75 7.875 C14.58982422 8.45580322 15.42964844 9.03660645 16.29492188 9.63500977 C18.86739961 11.41750069 21.43432875 13.20772965 24 15 C24.73927734 15.51449707 25.47855469 16.02899414 26.24023438 16.55908203 C41.64797756 27.29124969 56.8519084 38.29387095 71.4375 50.125 C74.43238416 52.55381814 77.46616051 54.9278821 80.51318359 57.29077148 C86.06589893 61.60109502 91.38822114 66.04671684 96.5625 70.8125 C99.2003741 73.17982291 101.92584874 75.40367181 104.6875 77.625 C108.4757367 80.68964093 111.97288859 83.85015634 115.35546875 87.3515625 C117.00264502 89.00265131 118.71783942 90.49642127 120.5 92 C126.78695853 97.40999575 132.51384143 103.43768404 138.34472656 109.32836914 C141.93560255 112.95473018 145.55575366 116.55127158 149.1796875 120.14453125 C150.74485315 121.70045899 152.3099557 123.2564502 153.875 124.8125 C154.65230469 125.58142578 155.42960937 126.35035156 156.23046875 127.14257812 C161.03622163 131.92813876 165.60139464 136.83910547 170 142 C170.93831022 143.08245781 171.8770882 144.16451038 172.81640625 145.24609375 C185.86407964 160.37734544 198.32355556 175.7804198 210 192 C210.51272461 192.70592285 211.02544922 193.4118457 211.55371094 194.13916016 C242.77195037 237.14802287 267.88124557 284.46767478 287 334 C287.41314453 335.07024414 287.82628906 336.14048828 288.25195312 337.24316406 C294.02514781 352.38979448 298.86121889 367.77118348 303.4375 383.3125 C303.82372025 384.61661835 303.82372025 384.61661835 304.21774292 385.94708252 C307.34693637 396.55753575 310.06112013 407.10343347 312 418 C312.54851624 417.8718692 313.09703247 417.7437384 313.66217041 417.61172485 C382.79510942 401.48768547 452.04095992 388.39686766 522.90393066 383.15530396 C524.90272652 383.00720728 526.9010849 382.85324082 528.89941406 382.69897461 C542.46292627 381.76416492 556.03455638 381.80254914 569.625 381.8125 C571.52218781 381.81240936 571.52218781 381.81240936 573.45770264 381.81231689 C591.3437808 381.82448988 609.08472897 382.12956548 626.90527344 383.7265625 C629.93792948 383.9945157 632.97104687 384.22165881 636.0078125 384.4375 C658.9471481 386.13406508 681.59234262 389.85621927 704 395 C705.18094238 395.2676416 706.36188477 395.5352832 707.57861328 395.81103516 C748.9065118 405.29305462 788.12844006 419.99108632 826 439 C826.86125488 439.43199707 827.72250977 439.86399414 828.60986328 440.30908203 C844.66780264 448.43178836 860.22479465 457.73151752 875 468 C875.62406738 468.43248047 876.24813477 468.86496094 876.89111328 469.31054688 C891.03418268 479.13221641 904.95494246 489.1807398 918 500.43359375 C920.72785122 502.76718522 923.50439767 505.01438282 926.3125 507.25 C933.17766402 512.83977796 939.52850145 518.97099696 945.94482422 525.0625 C947.93981127 526.94325758 949.95180537 528.80334381 951.97265625 530.65625 C959.19712515 537.28908731 966.00491712 544.0633373 972.53857422 551.38574219 C974.75288986 553.83162509 977.02516376 556.22180789 979.29125977 558.61962891 C984.66604468 564.31428187 989.84120806 570.07630416 994.73046875 576.19921875 C996.89942808 578.87588628 999.12792651 581.48463368 1001.38549805 584.08618164 C1007.01822846 590.57839743 1012.39982102 597.21702209 1017.56298828 604.09033203 C1019.18963846 606.2520136 1020.82737024 608.40510033 1022.46484375 610.55859375 C1052.89813445 650.70760201 1079.29664931 693.57305785 1103 738 C1103.75192627 739.40910645 1103.75192627 739.40910645 1104.51904297 740.84667969 C1110.87050138 752.79217552 1116.9206962 764.84269359 1122.66796875 777.08984375 C1125.18425551 782.43445784 1127.84070723 787.70597345 1130.57714844 792.94116211 C1132.29941026 796.30265785 1133.6052642 799.23569762 1134 803 C1133.18652344 805.37402344 1133.18652344 805.37402344 1131.859375 807.859375 C1131.37138428 808.7968457 1130.88339355 809.73431641 1130.38061523 810.70019531 C1129.84251221 811.70663086 1129.30440918 812.71306641 1128.75 813.75 C1091.39520735 886.07511993 1069.46133687 966.56820126 1058.44125366 1046.95819092 C1052.19083043 1092.42177928 1033.82470544 1136.59322084 997 1166 C996.03578125 1166.77859375 995.0715625 1167.5571875 994.078125 1168.359375 C977.40205678 1181.62454471 958.53501576 1192.09445579 938 1198 C936.26254517 1198.51626953 936.26254517 1198.51626953 934.48999023 1199.04296875 C923.30987081 1202.14449138 912.50324209 1202.61957144 900.94311523 1202.52148438 C897.9371705 1202.49999764 894.9336082 1202.52142431 891.92773438 1202.546875 C881.13476155 1202.56547333 871.40631176 1201.81113333 861.05587769 1198.62591553 C858.8652451 1197.95897364 856.66470987 1197.34185959 854.45727539 1196.73291016 C848.98045542 1195.21689714 843.52144582 1193.64148798 838.0625 1192.0625 C837.00764404 1191.75842224 835.95278809 1191.45434448 834.8659668 1191.14105225 C812.71835233 1184.74965591 790.64297587 1178.11828629 768.56413746 1171.49409008 C729.13411195 1159.6641174 689.71250454 1147.85396574 650 1137 C648.81988342 1136.67725098 647.63976685 1136.35450195 646.42388916 1136.02197266 C604.74467799 1124.64596688 562.91439455 1114.2031381 520.375 1106.5625 C519.51273804 1106.40637238 518.65047607 1106.25024475 517.76208496 1106.08938599 C490.61940852 1101.2196782 463.3354368 1098.3942869 435.85864854 1096.36886454 C431.80728683 1096.06827163 427.7566837 1095.75774628 423.70597839 1095.44845581 C415.99943023 1094.86140384 408.29230477 1094.28235307 400.58490628 1093.70658386 C392.10073693 1093.07251998 383.61713295 1092.43107466 375.13362718 1091.78820086 C372.61491395 1091.59733596 370.09619159 1091.4065919 367.57746696 1091.21587753 C354.15097703 1090.1991477 340.72451695 1089.18201029 327.29831123 1088.16153336 C325.61377108 1088.03350715 323.92923065 1087.90548465 322.24468994 1087.77746582 C321.40783862 1087.7138658 320.57098729 1087.65026578 319.70877683 1087.58473849 C314.47489522 1087.18722297 309.240859 1086.79180588 304.00672191 1086.3976692 C295.19113207 1085.73384314 286.37600633 1085.06438542 277.56163019 1084.38461816 C273.42028772 1084.06540198 269.27878625 1083.74890593 265.13666725 1083.4399147 C225.70662629 1080.49407133 225.70662629 1080.49407133 208.9375 1075.25 C208.10516846 1074.99250977 207.27283691 1074.73501953 206.4152832 1074.46972656 C179.38121886 1065.8655139 157.3120248 1049.00715483 138.99609375 1027.484375 C133.51000824 1021.16366193 127.44779952 1015.38080902 121.5 1009.5 C108.18469613 996.33466737 108.18469613 996.33466737 102.92773438 990.15039062 C98.040598 984.69878257 92.70457638 979.64595685 87.5 974.5 C74.18469613 961.33466737 74.18469613 961.33466737 68.92773438 955.15039062 C64.040598 949.69878257 58.70457638 944.64595685 53.5 939.5 C40.18395237 926.33393199 40.18395237 926.33393199 36.53125 922.03125 C31.10238199 915.64474317 24.95438631 909.88989837 19 904 C5.12319815 890.27348843 5.12319815 890.27348843 -0.08984375 884.1328125 C-4.96868107 878.68527636 -10.30154442 873.63990499 -15.5 868.5 C-28.81530387 855.33466737 -28.81530387 855.33466737 -34.07226562 849.15039062 C-38.959402 843.69878257 -44.29542362 838.64595685 -49.5 833.5 C-62.81530387 820.33466737 -62.81530387 820.33466737 -68.07226562 814.15039062 C-72.959402 808.69878257 -78.29542362 803.64595685 -83.5 798.5 C-96.81530387 785.33466737 -96.81530387 785.33466737 -102.07226562 779.15039062 C-106.959402 773.69878257 -112.29542362 768.64595685 -117.5 763.5 C-130.81530387 750.33466737 -130.81530387 750.33466737 -136.07226562 744.15039062 C-140.959402 738.69878257 -146.29542362 733.64595685 -151.5 728.5 C-164.81604763 715.33393199 -164.81604763 715.33393199 -168.46875 711.03125 C-173.89761801 704.64474317 -180.04561369 698.88989837 -186 693 C-200.49744349 678.65956854 -200.49744349 678.65956854 -205.67431641 672.55322266 C-207.4203861 670.50745923 -209.31255331 668.61484041 -211.1875 666.6875 C-235.73378639 639.37188899 -244.57900183 603.27197801 -243.21142578 567.42089844 C-242.89770922 562.34492105 -242.26422176 557.38065462 -241.375 552.375 C-241.23505615 551.58512695 -241.0951123 550.79525391 -240.95092773 549.98144531 C-237.91935662 535.16043097 -232.0544356 521.23752557 -225.59823608 507.63348389 C-223.99061932 504.24580193 -222.40534369 500.84780215 -220.8183136 497.45043945 C-220.01561241 495.73263925 -219.21181856 494.01534918 -218.40690613 492.29858398 C-214.9208632 484.85875528 -211.53308036 477.37902285 -208.1875 469.875 C-207.6711499 468.71830811 -207.1547998 467.56161621 -206.62280273 466.36987305 C-205.59602535 464.06816288 -204.56989503 461.76616394 -203.54443359 459.46386719 C-200.87264887 453.47156847 -198.18534775 447.48622963 -195.5 441.5 C-194.41659662 439.08336474 -193.33326318 436.66669811 -192.25 434.25 C-185.75 419.75 -179.25 405.25 -172.75 390.75 C-172.21415283 389.55463623 -171.67830566 388.35927246 -171.1262207 387.12768555 C-170.03885572 384.70205031 -168.95145315 382.27643192 -167.86401367 379.85083008 C-165.2170619 373.94651754 -162.57068319 368.04194985 -159.92578125 362.13671875 C-155.20683524 351.60273175 -150.48432752 341.07044312 -145.7421875 330.546875 C-144.22387121 327.17712258 -142.70562879 323.8073369 -141.1875 320.4375 C-140.80428589 319.58688995 -140.42107178 318.73627991 -140.02624512 317.8598938 C-134.33949521 305.23378816 -128.69934039 292.58778934 -123.0887146 279.92770386 C-117.22067473 266.69236163 -111.26112518 253.49950319 -105.28201294 240.31402588 C-99.80411254 228.23142132 -94.37215705 216.12997878 -89 204 C-83.22972552 190.97109812 -77.38482672 177.97755352 -71.5 165 C-65.59625814 151.9800046 -59.7297809 138.94498078 -53.9375 125.875 C-48.26955019 113.08582102 -42.55807841 100.31700094 -36.8125 87.5625 C-36.04817495 85.86531672 -35.28385202 84.16813248 -34.51953125 82.47094727 C-32.02222568 76.9263608 -29.52446807 71.38197789 -27.0255127 65.83813477 C-22.9970275 56.90096471 -18.98222679 47.95790551 -15 39 C-14.34499512 37.53046875 -14.34499512 37.53046875 -13.67675781 36.03125 C-8.42702457 24.20818488 -3.8464456 12.35387822 0 0 Z " fill="#673EBA" transform="translate(473,846)"/>
<path d="M0 0 C0.61262695 0.44867432 1.22525391 0.89734863 1.85644531 1.35961914 C3.88238278 2.90639186 5.8177657 4.5248338 7.75 6.1875 C8.66160889 6.95707031 9.57321777 7.72664063 10.51245117 8.51953125 C17.99348104 15.32217271 21.13596486 21.70290762 23.5625 31.5625 C23.9237159 32.92360758 24.28720669 34.28411323 24.65283203 35.64404297 C25.75346952 39.80959166 26.76685006 43.99282655 27.75 48.1875 C27.90382141 48.84258545 28.05764282 49.4976709 28.21612549 50.17260742 C48.51888129 137.36679331 38.17111477 226.76758735 1.75 308.1875 C1.17537037 309.47782657 0.60082913 310.76819251 0.02636719 312.05859375 C-10.83845406 336.421523 -22.02711348 360.67646235 -34.6015625 384.2109375 C-37.80962153 390.21652233 -40.9367032 396.2638081 -44.0625 402.3125 C-44.36964935 402.90668732 -44.67679871 403.50087463 -44.99325562 404.11306763 C-53.27924937 420.14803708 -61.51834676 436.20723326 -69.72296143 452.28398132 C-71.98618368 456.71804771 -74.25890841 461.14693021 -76.54296875 465.5703125 C-110.82911036 532.39995551 -132.84387943 605.59544185 -147.06188965 710.98440552 C-147.19945571 712.59553975 -147.34445787 714.20604386 -147.49377441 715.81613159 C-149.06787918 732.81635594 -149.56827412 749.7256737 -149.51074219 766.78979492 C-149.49940588 770.17945076 -149.50610702 773.56879023 -149.51762104 776.95843506 C-149.57266738 796.11322448 -148.75009886 815.08928118 -147.25 834.1875 C-147.176745 835.13358124 -147.10348999 836.07966248 -147.02801514 837.05441284 C-146.60003854 842.48020218 -146.10920464 847.89743054 -145.5625 853.3125 C-145.48074524 854.12624084 -145.39899048 854.93998169 -145.3147583 855.77838135 C-138.10289854 926.42431215 -121.68148591 996.19051089 -100.91876221 1063.99621582 C-100.27480799 1066.10621348 -99.63765279 1068.21811744 -99.00341797 1070.33105469 C-87.73685265 1107.84414516 -74.18937305 1144.59851328 -60.25 1181.1875 C-59.55551758 1181.26790527 -58.86103516 1181.34831055 -58.14550781 1181.43115234 C-54.92997487 1181.80521285 -51.71499408 1182.18383705 -48.5 1182.5625 C-47.40816406 1182.68882813 -46.31632812 1182.81515625 -45.19140625 1182.9453125 C-17.8460103 1186.18145403 9.34225971 1192.46128442 35.75 1200.1875 C36.96413574 1200.54150879 38.17827148 1200.89551758 39.42919922 1201.26025391 C109.18210426 1221.74324983 177.40773799 1253.86214041 232.74609375 1301.6171875 C235.49694682 1303.97097335 238.29580476 1306.24164386 241.125 1308.5 C252.85458973 1318.09846255 263.52789962 1328.87176091 274.25 1339.5625 C274.7685556 1340.07837677 275.28711121 1340.59425354 275.82138062 1341.12576294 C281.68472932 1346.96611585 287.38659652 1352.87871179 292.75 1359.1875 C293.79496001 1360.37928596 294.84182112 1361.56940785 295.890625 1362.7578125 C303.1354768 1371.02202887 310.07429274 1379.4580955 316.75 1388.1875 C317.20665039 1388.78046875 317.66330078 1389.3734375 318.13378906 1389.984375 C338.87005237 1416.96025055 356.97290933 1445.61246854 373.75 1475.1875 C374.24580566 1476.06051758 374.74161133 1476.93353516 375.25244141 1477.83300781 C393.85979802 1510.85029114 410.26143232 1545.16471244 425.09474182 1580.02220154 C427.28164894 1585.15309867 429.59229794 1590.212483 432.03076172 1595.22973633 C432.26811035 1595.87579834 432.50545898 1596.52186035 432.75 1597.1875 C432.42 1597.8475 432.09 1598.5075 431.75 1599.1875 C427.11083835 1590.46192787 422.48618991 1581.73696007 418.13037109 1572.86572266 C412.60672431 1561.62172124 406.51192224 1550.75465358 400.28564453 1539.88720703 C398.45691511 1536.67224837 396.67079843 1533.43541853 394.89160156 1530.19287109 C374.50899178 1493.07271677 350.83937384 1457.53544366 324.75 1424.1875 C323.85780585 1423.03666533 322.96588637 1421.88561768 322.07421875 1420.734375 C316.28266022 1413.28117727 310.31467591 1406.00629952 304.16796875 1398.84375 C302.70988526 1397.14064422 301.26053148 1395.43040726 299.8125 1393.71875 C293.53158539 1386.31246635 287.08985274 1379.0876653 280.44824219 1372.00341797 C278.55481505 1369.97879016 276.67209001 1367.94445815 274.7890625 1365.91015625 C268.5549681 1359.19917274 262.36269439 1352.56068704 255.43359375 1346.5546875 C252.5308204 1343.99416254 249.72552266 1341.34703827 246.91772461 1338.68334961 C240.08464015 1332.20527174 233.14240432 1326.02739659 225.75 1320.1875 C224.63552161 1319.28272262 223.52231488 1318.37637733 222.41015625 1317.46875 C207.78527733 1305.57548957 192.63799745 1294.33973116 176.75 1284.1875 C175.97994629 1283.69427246 175.20989258 1283.20104492 174.41650391 1282.69287109 C161.17753623 1274.25533259 147.65363677 1266.47539886 133.75 1259.1875 C132.85168457 1258.71570312 131.95336914 1258.24390625 131.02783203 1257.7578125 C67.98897724 1224.88179531 -2.54471004 1207.71388494 -73.25 1203.1875 C-74.3330542 1203.11651596 -74.3330542 1203.11651596 -75.43798828 1203.0440979 C-90.61948924 1202.0793551 -105.79193665 1201.98649439 -121 1202 C-122.89150787 1202.00090637 -122.89150787 1202.00090637 -124.82122803 1202.00183105 C-144.05108561 1202.02680292 -163.09253393 1202.40968333 -182.25 1204.1875 C-183.76495229 1204.32332129 -185.27992736 1204.45888872 -186.79492188 1204.59423828 C-209.03015432 1206.60297452 -231.10911691 1209.3431354 -253.1552124 1212.85540771 C-255.24164585 1213.18617559 -257.32890708 1213.51113519 -259.41650391 1213.83447266 C-294.94489454 1219.35325972 -330.36230053 1226.19977951 -365.26416016 1234.85107422 C-366.52405762 1235.16061035 -367.78395508 1235.47014648 -369.08203125 1235.7890625 C-370.16202393 1236.06057129 -371.2420166 1236.33208008 -372.35473633 1236.61181641 C-375.07814108 1237.1533282 -377.48352469 1237.30185148 -380.25 1237.1875 C-380.47421631 1236.33091797 -380.69843262 1235.47433594 -380.92944336 1234.59179688 C-391.09884137 1196.06802464 -402.89177098 1158.57715187 -419.25 1122.1875 C-419.77883789 1121.00494629 -420.30767578 1119.82239258 -420.85253906 1118.60400391 C-427.98085938 1102.73352527 -435.65185232 1087.31071256 -444.25 1072.1875 C-444.92579102 1070.98504639 -444.92579102 1070.98504639 -445.61523438 1069.75830078 C-463.61893433 1037.73931178 -484.57438905 1007.28602728 -508.25 979.1875 C-509.12775338 978.13554116 -510.00534829 977.08345007 -510.8828125 976.03125 C-516.11977421 969.77499538 -521.47699063 963.66252269 -527 957.65625 C-528.87880201 955.59478668 -530.69718754 953.5023187 -532.5 951.375 C-536.59423505 946.62648041 -541.12574806 942.29206187 -545.62792969 937.93432617 C-546.5217334 937.05804565 -546.5217334 937.05804565 -547.43359375 936.1640625 C-547.97556396 935.63893066 -548.51753418 935.11379883 -549.07592773 934.57275391 C-550.25 933.1875 -550.25 933.1875 -550.25 931.1875 C-551.10803223 930.81951294 -551.10803223 930.81951294 -551.98339844 930.4440918 C-554.63736797 928.97274527 -556.39499183 927.25197599 -558.515625 925.08203125 C-559.32386719 924.26283203 -560.13210938 923.44363281 -560.96484375 922.59960938 C-561.80144531 921.74173828 -562.63804687 920.88386719 -563.5 920 C-569.23265543 914.14585188 -575.0227511 908.5127689 -581.25 903.1875 C-582.85768373 901.73304483 -584.46239715 900.27529105 -586.0625 898.8125 C-590.38125657 894.91508553 -594.82762051 891.21449645 -599.3515625 887.55859375 C-601.87950377 885.49058789 -604.36430997 883.38085876 -606.83862305 881.24926758 C-614.09154608 875.01523127 -621.66858435 869.29339375 -629.35253906 863.60449219 C-632.13943769 861.52328276 -634.8801562 859.38641495 -637.625 857.25 C-649.94472735 847.72986394 -662.69240266 838.81787648 -675.5625 830.0625 C-676.64241211 829.32765381 -677.72232422 828.59280762 -678.83496094 827.83569336 C-683.25262716 824.84347473 -687.66624111 821.9195441 -692.25 819.1875 C-692.14615116 818.51762338 -692.04230232 817.84774675 -691.93530655 817.15757084 C-690.17931144 805.78916395 -688.47028468 794.41369899 -686.75683594 783.03881836 C-686.40489558 780.70344259 -686.05293581 778.36806975 -685.70095825 776.03269958 C-684.94353939 771.00702873 -684.18623347 765.98134087 -683.42900848 760.95564079 C-682.21552171 752.90190614 -681.00162907 744.84823269 -679.78765869 736.79457092 C-679.36826525 734.0122178 -678.94887425 731.2298643 -678.5294838 728.44751072 C-678.42460448 727.75171303 -678.31972517 727.05591534 -678.2116677 726.33903287 C-677.01864937 718.42419276 -675.82571051 710.50934067 -674.6328125 702.59448242 C-674.52397249 701.87233158 -674.41513248 701.15018074 -674.30299428 700.40614653 C-672.7853 690.33621344 -671.26784248 680.26624469 -669.75053698 670.19625302 C-668.90281971 664.57020885 -668.05504892 658.94417274 -667.20727003 653.31813785 C-666.8906731 651.21711606 -666.57408672 649.11609268 -666.25750065 647.01506925 C-663.96307987 631.78844246 -661.66708837 616.56205484 -659.36706543 601.33627319 C-659.1614262 599.97489874 -658.95578779 598.61352416 -658.7501502 597.25214946 C-657.12212853 586.47441606 -657.12212853 586.47441606 -656.31770229 581.15056682 C-654.05551161 566.17823779 -651.80041436 551.20488957 -649.56183887 536.22901028 C-648.25320054 527.47454801 -646.93956182 518.72084779 -645.62173963 509.96776325 C-644.73642539 504.08490364 -643.85804392 498.20107054 -642.98539925 492.31631899 C-642.45596234 488.75842986 -641.91941305 485.20164073 -641.38080883 481.64512897 C-641.13912639 480.0398083 -640.90028889 478.43405582 -640.66478443 476.8278172 C-636.75372089 450.1847477 -628.55921385 423.61483859 -610.25 403.1875 C-609.17105469 401.94806641 -609.17105469 401.94806641 -608.0703125 400.68359375 C-601.31631528 393.02984257 -594.22774457 385.78217099 -586.48046875 379.1328125 C-583.69134169 376.70026385 -580.97082451 374.19571386 -578.25 371.6875 C-574.34041547 368.08712421 -570.39132925 364.54331868 -566.375 361.0625 C-563.63176582 358.64199925 -560.94115432 356.16549358 -558.25 353.6875 C-554.34018405 350.08737244 -550.39133532 346.54332395 -546.375 343.0625 C-543.63176582 340.64199925 -540.94115432 338.16549358 -538.25 335.6875 C-534.34018405 332.08737244 -530.39133532 328.54332395 -526.375 325.0625 C-523.63176582 322.64199925 -520.94115432 320.16549358 -518.25 317.6875 C-514.34018405 314.08737244 -510.39133532 310.54332395 -506.375 307.0625 C-503.63176582 304.64199925 -500.94115432 302.16549358 -498.25 299.6875 C-494.34018405 296.08737244 -490.39133532 292.54332395 -486.375 289.0625 C-483.63176582 286.64199925 -480.94115432 284.16549358 -478.25 281.6875 C-474.34018405 278.08737244 -470.39133532 274.54332395 -466.375 271.0625 C-463.63176582 268.64199925 -460.94115432 266.16549358 -458.25 263.6875 C-454.34018405 260.08737244 -450.39133532 256.54332395 -446.375 253.0625 C-443.63176582 250.64199925 -440.94115432 248.16549358 -438.25 245.6875 C-434.34018405 242.08737244 -430.39133532 238.54332395 -426.375 235.0625 C-423.63176582 232.64199925 -420.94115432 230.16549358 -418.25 227.6875 C-414.34018405 224.08737244 -410.39133532 220.54332395 -406.375 217.0625 C-403.63176582 214.64199925 -400.94115432 212.16549358 -398.25 209.6875 C-394.34018405 206.08737244 -390.39133532 202.54332395 -386.375 199.0625 C-383.63176582 196.64199925 -380.94115432 194.16549358 -378.25 191.6875 C-374.34018405 188.08737244 -370.39133532 184.54332395 -366.375 181.0625 C-363.63176582 178.64199925 -360.94115432 176.16549358 -358.25 173.6875 C-354.34018405 170.08737244 -350.39133532 166.54332395 -346.375 163.0625 C-343.63176582 160.64199925 -340.94115432 158.16549358 -338.25 155.6875 C-334.34018405 152.08737244 -330.39133532 148.54332395 -326.375 145.0625 C-323.63176582 142.64199925 -320.94115432 140.16549358 -318.25 137.6875 C-314.34018405 134.08737244 -310.39133532 130.54332395 -306.375 127.0625 C-303.09491419 124.16830664 -299.88731943 121.19531108 -296.66967773 118.23217773 C-293.91526572 115.70009884 -291.14257501 113.19714732 -288.3125 110.75 C-284.72041409 107.63785876 -281.23448008 104.41877914 -277.75 101.1875 C-273.66698978 97.40118312 -269.55230283 93.66982951 -265.33984375 90.02734375 C-262.60629441 87.62079844 -259.92885994 85.15446804 -257.25 82.6875 C-253.34020819 79.08734677 -249.39133464 75.54332336 -245.375 72.0625 C-242.63176582 69.64199925 -239.94115432 67.16549358 -237.25 64.6875 C-233.34018405 61.08737244 -229.39133532 57.54332395 -225.375 54.0625 C-222.63176582 51.64199925 -219.94115432 49.16549358 -217.25 46.6875 C-213.34018405 43.08737244 -209.39133532 39.54332395 -205.375 36.0625 C-202.63176544 33.64199892 -199.94117094 31.1654759 -197.25 28.6875 C-193.30953491 25.05958613 -189.33693488 21.47932804 -185.28125 17.98046875 C-183.77908248 16.65451703 -182.30371976 15.29805802 -180.84375 13.92578125 C-131.10200353 -32.67053126 -56.00368064 -41.42526449 0 0 Z " fill="#C3ABF3" transform="translate(1165.25,26.8125)"/>
<path d="M0 0 C5.18239975 1.67909752 9.32695802 4.79020488 13.75 7.875 C14.58982422 8.45580322 15.42964844 9.03660645 16.29492188 9.63500977 C18.86739961 11.41750069 21.43432875 13.20772965 24 15 C24.73927734 15.51449707 25.47855469 16.02899414 26.24023438 16.55908203 C41.64797756 27.29124969 56.8519084 38.29387095 71.4375 50.125 C74.43238416 52.55381814 77.46616051 54.9278821 80.51318359 57.29077148 C86.06589893 61.60109502 91.38822114 66.04671684 96.5625 70.8125 C99.2003741 73.17982291 101.92584874 75.40367181 104.6875 77.625 C108.4757367 80.68964093 111.97288859 83.85015634 115.35546875 87.3515625 C117.00264502 89.00265131 118.71783942 90.49642127 120.5 92 C126.78695853 97.40999575 132.51384143 103.43768404 138.34472656 109.32836914 C141.93560255 112.95473018 145.55575366 116.55127158 149.1796875 120.14453125 C150.74485315 121.70045899 152.3099557 123.2564502 153.875 124.8125 C154.65230469 125.58142578 155.42960937 126.35035156 156.23046875 127.14257812 C161.03622163 131.92813876 165.60139464 136.83910547 170 142 C170.93831022 143.08245781 171.8770882 144.16451038 172.81640625 145.24609375 C185.86407964 160.37734544 198.32355556 175.7804198 210 192 C210.51272461 192.70592285 211.02544922 193.4118457 211.55371094 194.13916016 C242.77195037 237.14802287 267.88124557 284.46767478 287 334 C287.41314453 335.07024414 287.82628906 336.14048828 288.25195312 337.24316406 C308.77361523 391.08406995 321.42358177 447.59230959 326 505 C326.10296387 506.28036133 326.20592773 507.56072266 326.31201172 508.87988281 C329.29200445 547.1304225 329.00618365 585.76076389 326 624 C325.91232361 625.122995 325.91232361 625.122995 325.82287598 626.26867676 C322.5743557 667.18253175 316.06347193 707.97838458 307 748 C306.74830048 749.11933929 306.74830048 749.11933929 306.49151611 750.2612915 C301.53138395 772.30830513 296.00404558 794.13833115 289.63916016 815.82208252 C288.95170285 818.16457098 288.2668242 820.50780556 287.58203125 822.85107422 C286.10406036 827.90299918 284.61654091 832.95206661 283.125 838 C282.8898468 838.79753693 282.6546936 839.59507385 282.41241455 840.41677856 C281.73921995 842.69552663 281.06175238 844.97295793 280.3828125 847.25 C280.18627075 847.91635971 279.989729 848.58271942 279.78723145 849.26927185 C278.58950652 853.26474627 277.22113308 857.1574682 275.73400879 861.0506897 C274.60328997 864.05354454 273.5925226 867.09417775 272.57421875 870.13671875 C272.11059316 871.51342865 271.64645819 872.88996708 271.18188477 874.26635742 C270.8180217 875.34438126 270.8180217 875.34438126 270.44680786 876.44418335 C259.00322569 910.25336633 245.86705088 943.37848682 232.11889648 976.30883789 C231.13309944 978.67987014 230.15806007 981.0547084 229.19140625 983.43359375 C228.91876953 984.10326172 228.64613281 984.77292969 228.36523438 985.46289062 C227.8319943 986.77458336 227.30072872 988.08708059 226.77148438 989.40039062 C224.55984156 994.81761455 222.12220489 1000.11854687 219.65698242 1005.42456055 C216.99916199 1011.15960994 214.39094901 1016.91696824 211.78564453 1022.67602539 C211.17592094 1024.02281163 210.56523537 1025.36916276 209.95361328 1026.71508789 C206.78841088 1033.68072071 203.70106048 1040.64953856 200.91210938 1047.77661133 C199.40570712 1051.44866842 197.62175497 1054.9697464 195.8125 1058.5 C195.45736328 1059.20125 195.10222656 1059.9025 194.73632812 1060.625 C193.82757237 1062.41836999 192.91414195 1064.20936954 192 1066 C191.67 1066.66 191.34 1067.32 191 1068 C170.66381817 1062.14042218 152.36274739 1043.1899234 139 1027.48828125 C133.51229339 1021.1664971 127.4491355 1015.38212995 121.5 1009.5 C108.18469613 996.33466737 108.18469613 996.33466737 102.92773438 990.15039062 C98.040598 984.69878257 92.70457638 979.64595685 87.5 974.5 C74.18469613 961.33466737 74.18469613 961.33466737 68.92773438 955.15039062 C64.040598 949.69878257 58.70457638 944.64595685 53.5 939.5 C40.18395237 926.33393199 40.18395237 926.33393199 36.53125 922.03125 C31.10238199 915.64474317 24.95438631 909.88989837 19 904 C5.12319815 890.27348843 5.12319815 890.27348843 -0.08984375 884.1328125 C-4.96868107 878.68527636 -10.30154442 873.63990499 -15.5 868.5 C-28.81530387 855.33466737 -28.81530387 855.33466737 -34.07226562 849.15039062 C-38.959402 843.69878257 -44.29542362 838.64595685 -49.5 833.5 C-62.81530387 820.33466737 -62.81530387 820.33466737 -68.07226562 814.15039062 C-72.959402 808.69878257 -78.29542362 803.64595685 -83.5 798.5 C-96.81530387 785.33466737 -96.81530387 785.33466737 -102.07226562 779.15039062 C-106.959402 773.69878257 -112.29542362 768.64595685 -117.5 763.5 C-130.81530387 750.33466737 -130.81530387 750.33466737 -136.07226562 744.15039062 C-140.959402 738.69878257 -146.29542362 733.64595685 -151.5 728.5 C-164.81604763 715.33393199 -164.81604763 715.33393199 -168.46875 711.03125 C-173.89761801 704.64474317 -180.04561369 698.88989837 -186 693 C-200.49744349 678.65956854 -200.49744349 678.65956854 -205.67431641 672.55322266 C-207.4203861 670.50745923 -209.31255331 668.61484041 -211.1875 666.6875 C-235.73378639 639.37188899 -244.57900183 603.27197801 -243.21142578 567.42089844 C-242.89770922 562.34492105 -242.26422176 557.38065462 -241.375 552.375 C-241.23505615 551.58512695 -241.0951123 550.79525391 -240.95092773 549.98144531 C-237.91935662 535.16043097 -232.0544356 521.23752557 -225.59823608 507.63348389 C-223.99061932 504.24580193 -222.40534369 500.84780215 -220.8183136 497.45043945 C-220.01561241 495.73263925 -219.21181856 494.01534918 -218.40690613 492.29858398 C-214.9208632 484.85875528 -211.53308036 477.37902285 -208.1875 469.875 C-207.6711499 468.71830811 -207.1547998 467.56161621 -206.62280273 466.36987305 C-205.59602535 464.06816288 -204.56989503 461.76616394 -203.54443359 459.46386719 C-200.87264887 453.47156847 -198.18534775 447.48622963 -195.5 441.5 C-194.41659662 439.08336474 -193.33326318 436.66669811 -192.25 434.25 C-185.75 419.75 -179.25 405.25 -172.75 390.75 C-172.21415283 389.55463623 -171.67830566 388.35927246 -171.1262207 387.12768555 C-170.03885572 384.70205031 -168.95145315 382.27643192 -167.86401367 379.85083008 C-165.2170619 373.94651754 -162.57068319 368.04194985 -159.92578125 362.13671875 C-155.20683524 351.60273175 -150.48432752 341.07044312 -145.7421875 330.546875 C-144.22387121 327.17712258 -142.70562879 323.8073369 -141.1875 320.4375 C-140.80428589 319.58688995 -140.42107178 318.73627991 -140.02624512 317.8598938 C-134.33949521 305.23378816 -128.69934039 292.58778934 -123.0887146 279.92770386 C-117.22067473 266.69236163 -111.26112518 253.49950319 -105.28201294 240.31402588 C-99.80411254 228.23142132 -94.37215705 216.12997878 -89 204 C-83.22972552 190.97109812 -77.38482672 177.97755352 -71.5 165 C-65.59625814 151.9800046 -59.7297809 138.94498078 -53.9375 125.875 C-48.26955019 113.08582102 -42.55807841 100.31700094 -36.8125 87.5625 C-36.04817495 85.86531672 -35.28385202 84.16813248 -34.51953125 82.47094727 C-32.02222568 76.9263608 -29.52446807 71.38197789 -27.0255127 65.83813477 C-22.9970275 56.90096471 -18.98222679 47.95790551 -15 39 C-14.34499512 37.53046875 -14.34499512 37.53046875 -13.67675781 36.03125 C-8.42702457 24.20818488 -3.8464456 12.35387822 0 0 Z " fill="#6F41CB" transform="translate(473,846)"/>
<path d="M0 0 C2.30939963 8.62393264 4.03634235 17.24771614 5.4375 26.0625 C5.59516342 27.05334595 5.59516342 27.05334595 5.75601196 28.06420898 C17.96683135 105.35013819 16.83378106 184.98373424 3 271 C2.86378235 271.80528137 2.7275647 272.61056274 2.58721924 273.44024658 C-11.41205153 355.68323318 -35.95166421 435.35769588 -125 627 C-125.33 626.34 -125.66 625.68 -126 625 C-125.19414829 622.85005771 -124.27730492 620.74151319 -123.31640625 618.65625 C-123.02571259 618.01935745 -122.73501892 617.3824649 -122.43551636 616.72627258 C-121.48492847 614.64751775 -120.52366116 612.5738842 -119.5625 610.5 C-118.9100219 609.07681308 -118.25841161 607.65322798 -117.60766602 606.22924805 C-116.32388991 603.4214214 -115.03689301 600.61511253 -113.74707031 597.81005859 C-111.61088276 593.15885857 -109.51254016 588.49128631 -107.4375 583.8125 C-107.12586914 583.11044434 -106.81423828 582.40838867 -106.49316406 581.68505859 C-104.33718536 576.80754051 -102.24886739 571.90436779 -100.22241211 566.97143555 C-99.04633964 564.11264224 -97.85906511 561.25881199 -96.66796875 558.40625 C-81.64278394 522.35354428 -67.8677721 486.01679828 -55.64916992 448.91162109 C-55.34470947 447.98945801 -55.04024902 447.06729492 -54.7265625 446.1171875 C-54.33331787 444.92005127 -54.33331787 444.92005127 -53.93212891 443.69873047 C-53.17643966 441.51083393 -52.37789049 439.35421696 -51.55249023 437.19238281 C-50.01265409 433.10911641 -48.69460152 428.98134984 -47.43359375 424.8046875 C-47.198647 424.03192978 -46.96370026 423.25917206 -46.72163391 422.46299744 C-45.95570354 419.93501099 -45.19554315 417.40536229 -44.4375 414.875 C-44.04274475 413.55778458 -44.04274475 413.55778458 -43.64001465 412.21395874 C-34.81119721 382.66633014 -27.21473046 352.93917121 -20.9855957 322.73632812 C-20.2773958 319.30867525 -19.54442507 315.88708974 -18.80151367 312.46679688 C-15.63897631 297.79821072 -13.11106328 283.09576621 -10.9375 268.25 C-10.76668915 267.09433533 -10.5958783 265.93867065 -10.41989136 264.74798584 C-7.06348661 241.89845708 -4.63164833 219.03420679 -3 196 C-2.91669434 194.86320801 -2.83338867 193.72641602 -2.74755859 192.55517578 C-2.27352754 185.70265523 -2.08770431 178.86743039 -2 172 C-1.97405883 170.3950179 -1.94800826 168.79003757 -1.921875 167.18505859 C-1.138148 115.29959907 -4.67640971 63.90723651 -15 13 C-15.38188934 11.08991947 -15.76342091 9.17976736 -16.14453125 7.26953125 C-16.42956196 5.84632902 -16.7146676 4.42314178 -17 3 C-14.91798472 2.49453964 -12.83432933 1.99583165 -10.75 1.5 C-9.58984375 1.2215625 -8.4296875 0.943125 -7.234375 0.65625 C-4 0 -4 0 0 0 Z " fill="#7E5FBB" transform="translate(802,1261)"/>
<path d="M0 0 C0.66 0 1.32 0 2 0 C1.58936403 8.85970206 -0.70886863 17.13334841 -3.0625 25.625 C-3.44408971 27.02454066 -3.82495451 28.42427918 -4.20507812 29.82421875 C-5.1283819 33.21846517 -6.06143429 36.60993766 -7 40 C-7.33 40 -7.66 40 -8 40 C-7.32256441 31.46049508 -5.36853593 23.25909654 -3.4375 14.9375 C-3.10435818 13.48513137 -2.77167217 12.03265811 -2.43945312 10.58007812 C-1.63155359 7.05216362 -0.81749479 3.52570504 0 0 Z " fill="#9368EA" transform="translate(1197,237)"/>
<path d="M0 0 C0.99 0 1.98 0 3 0 C1.48968084 5.26122171 -0.90374191 9.67232586 -3.625 14.375 C-4.04523437 15.11105469 -4.46546875 15.84710937 -4.8984375 16.60546875 C-5.92752764 18.4063765 -6.96310756 20.20357318 -8 22 C-8.33 21.34 -8.66 20.68 -9 20 C-8.28735352 17.93701172 -8.28735352 17.93701172 -7.12890625 15.4296875 C-6.51499023 14.08583984 -6.51499023 14.08583984 -5.88867188 12.71484375 C-5.45103516 11.77769531 -5.01339844 10.84054687 -4.5625 9.875 C-3.9118457 8.45767578 -3.9118457 8.45767578 -3.24804688 7.01171875 C-2.1723338 4.67115623 -1.08940487 2.33421339 0 0 Z " fill="#8C6EC9" transform="translate(685,1866)"/>
<path d="M0 0 C0.66 0 1.32 0 2 0 C1.67 4.29 1.34 8.58 1 13 C0.34 12.67 -0.32 12.34 -1 12 C-1.14285714 3.42857143 -1.14285714 3.42857143 0 0 Z " fill="#8D5FE9" transform="translate(1200,220)"/>
<path d="M0 0 C4.10958767 1.45044271 7.43258745 3.51110752 11 6 C10.67 6.66 10.34 7.32 10 8 C8.33055479 6.85821872 6.6645052 5.71147095 5 4.5625 C4.071875 3.92441406 3.14375 3.28632812 2.1875 2.62890625 C1.465625 2.09136719 0.74375 1.55382812 0 1 C0 0.67 0 0.34 0 0 Z " fill="#CBB8F2" transform="translate(486,853)"/>
</svg>
